<svg width="128" height="128" viewBox="0 0 128 128" fill="none" xmlns="http://www.w3.org/2000/svg">
  <defs>
    <radialGradient id="welcomeBg" cx="0.5" cy="0.5" r="0.7">
      <stop offset="0%" stop-color="#FF6B9D" stop-opacity="0.4"/>
      <stop offset="50%" stop-color="#C44569" stop-opacity="0.3"/>
      <stop offset="100%" stop-color="#6B2C91" stop-opacity="0.15"/>
    </radialGradient>
    <linearGradient id="letterPaper" x1="0" y1="0" x2="1" y2="1">
      <stop offset="0%" stop-color="#FFFFFF"/>
      <stop offset="100%" stop-color="#F5F5F5"/>
    </linearGradient>
    <linearGradient id="letterFold" x1="0" y1="0" x2="1" y2="0">
      <stop offset="0%" stop-color="#E8E8E8"/>
      <stop offset="100%" stop-color="#D0D0D0"/>
    </linearGradient>
  </defs>
  <!-- 배경 원 -->
  <circle cx="64" cy="64" r="60" fill="url(#welcomeBg)" stroke="#FFFFFF" stroke-opacity="0.25" stroke-width="2"/>
  <!-- 편지 -->
  <g transform="translate(64, 64)">
    <!-- 편지 본체 -->
    <rect x="-24" y="-28" width="48" height="56" rx="6" fill="url(#letterPaper)" stroke="#FFFFFF" stroke-width="2.5" stroke-opacity="0.4"/>
    <!-- 편지 접힌 부분 -->
    <path d="M -24 -28 L 0 -16 L 24 -28" stroke="url(#letterFold)" stroke-width="2.5" fill="none" stroke-linecap="round"/>
    <path d="M -24 -28 L 0 -16 L 24 -28" stroke="#FFFFFF" stroke-width="1.5" fill="none" stroke-opacity="0.3" stroke-linecap="round"/>
    <!-- 편지 내용 라인 -->
    <line x1="-18" y1="-8" x2="18" y2="-8" stroke="#FF6B9D" stroke-width="2" stroke-opacity="0.6" stroke-linecap="round"/>
    <line x1="-18" y1="0" x2="12" y2="0" stroke="#FF6B9D" stroke-width="2" stroke-opacity="0.5" stroke-linecap="round"/>
    <line x1="-18" y1="8" x2="18" y2="8" stroke="#FF6B9D" stroke-width="2" stroke-opacity="0.4" stroke-linecap="round"/>
    <!-- 하트 장식 -->
    <path d="M -12 -20 C -12 -22, -10 -24, -8 -24 C -6 -24, -4 -22, -4 -20 C -4 -18, -6 -16, -8 -14 C -10 -16, -12 -18, -12 -20 Z" fill="#FF6B9D" opacity="0.8"/>
    <path d="M 8 -18 C 8 -19.5, 9.5 -21, 11 -21 C 12.5 -21, 14 -19.5, 14 -18 C 14 -16.5, 12.5 -15, 11 -13.5 C 9.5 -15, 8 -16.5, 8 -18 Z" fill="#FF6B9D" opacity="0.7"/>
    <!-- 반짝임 효과 -->
    <circle cx="-6" cy="-12" r="1.5" fill="#FFFFFF" opacity="0.9"/>
    <circle cx="10" cy="-10" r="1" fill="#FFFFFF" opacity="0.8"/>
  </g>
</svg>

